<svg width="38" height="37" viewBox="0 0 38 37" fill="none" xmlns="http://www.w3.org/2000/svg">
<path d="M19.7561 29.7765L28.4186 35.2765C29.5358 35.9812 30.9108 34.9328 30.5842 33.6437L28.0749 23.7781C28.007 23.5047 28.0178 23.2176 28.106 22.95C28.1942 22.6824 28.3562 22.4452 28.5733 22.2656L36.3421 15.7859C37.3561 14.9437 36.8405 13.2422 35.5171 13.1562L25.3764 12.5031C25.0997 12.487 24.8337 12.3907 24.6109 12.2258C24.3881 12.061 24.2181 11.8348 24.1217 11.575L20.3405 2.05311C20.2404 1.77794 20.0581 1.54024 19.8182 1.37227C19.5784 1.2043 19.2927 1.1142 18.9999 1.1142C18.7071 1.1142 18.4214 1.2043 18.1815 1.37227C17.9417 1.54024 17.7593 1.77794 17.6592 2.05311L13.878 11.575C13.7816 11.8348 13.6116 12.061 13.3888 12.2258C13.166 12.3907 12.9 12.487 12.6233 12.5031L2.48268 13.1562C1.15925 13.2422 0.643621 14.9437 1.65768 15.7859L9.42643 22.2656C9.64357 22.4452 9.80556 22.6824 9.89375 22.95C9.98194 23.2176 9.99272 23.5047 9.92487 23.7781L7.60456 32.9219C7.20925 34.4687 8.85925 35.7234 10.1827 34.8812L18.2436 29.7765C18.4697 29.6328 18.732 29.5565 18.9999 29.5565C19.2677 29.5565 19.5301 29.6328 19.7561 29.7765Z" fill="#DD7C22" stroke="#DD7C22" stroke-width="1.5" stroke-linecap="round" stroke-linejoin="round"/>
</svg>
